<?xml version="1.0" encoding="UTF-8"?>
<svg id="Layer_1" xmlns="http://www.w3.org/2000/svg" version="1.1" viewBox="0 0 50 50">
  <!-- Generator: Adobe Illustrator 30.3.0, SVG Export Plug-In . SVG Version: 2.1.3 Build 182)  -->
  <defs>
    <style>
      .st0 {
        fill: #fff;
      }

      .st1 {
        fill-opacity: 0;
      }
    </style>
  </defs>
  <rect class="st1" y="0" width="50" height="50"/>
  <path class="st0" color-rendering="auto" d="M18.62,4.26c-7.91,0-14.37,6.45-14.37,14.37s6.45,14.37,14.37,14.37c3.24,0,6.23-1.1,8.64-2.92.05.06.1.11.15.17l14.9,14.9c.76.8,2.03.82,2.83.06.8-.76.82-2.03.06-2.83-.02-.02-.04-.04-.06-.06l-14.9-14.9c-.05-.05-.11-.1-.17-.15,1.82-2.41,2.92-5.4,2.92-8.64,0-7.91-6.45-14.37-14.37-14.37h0ZM18.62,7.85c5.97,0,10.78,4.8,10.78,10.78s-4.8,10.78-10.78,10.78-10.78-4.8-10.78-10.78,4.8-10.78,10.78-10.78Z" image-rendering="auto" shape-rendering="auto"/>
</svg>